<?xml version="1.0" ?><svg fill="#47af19" data-name="Layer 1" id="Layer_1" viewBox="0 0 24 24" xmlns="http://www.w3.org/2000/svg"><title/><path d="M20.36,5.14a1,1,0,0,0-.06-.34s0,0,0-.08L20.2,4.6l-.68-1,.68-1A1,1,0,0,0,19.37,1H4.63A1,1,0,0,0,3.8,2.55l.68,1-.68,1a.67.67,0,0,0-.06.12s0,0,0,.08a1,1,0,0,0-.06.34V22a1,1,0,0,0,1,1H19.37a1,1,0,0,0,1-1V5.16S20.36,5.15,20.36,5.14ZM6.52,3l0,0h11l0,0a1,1,0,0,0,0,1.11l0,0H6.5l0,0A1,1,0,0,0,6.52,3ZM18.37,21H5.63V6.16H18.37Z"/><path d="M12,14.58a4.17,4.17,0,0,0,4.16-4.16V9.37a1,1,0,0,0-2,0v1.05a2.16,2.16,0,1,1-4.32,0V9.37a1,1,0,0,0-2,0v1.05A4.17,4.17,0,0,0,12,14.58Z"/></svg>